<svg xmlns="http://www.w3.org/2000/svg" viewBox="0 0 512 512">
  <defs>
    <linearGradient id="lg" x1="0" y1="0" x2="0" y2="1">
      <stop offset="0" stop-color="#a78bfa"/>
      <stop offset="1" stop-color="#7c3aed"/>
    </linearGradient>
  </defs>
  <g stroke="url(#lg)" stroke-width="26" stroke-linecap="round" fill="none">
    <path d="M 292 202 C 336 158 366 144 408 92"/>
    <path d="M 300 232 C 356 212 396 206 452 184"/>
    <path d="M 300 262 C 356 270 398 290 450 326"/>
    <path d="M 290 290 C 332 326 360 366 394 436"/>
    <path d="M 220 202 C 176 158 146 144 104 92"/>
    <path d="M 212 232 C 156 212 116 206 60 184"/>
    <path d="M 212 262 C 156 270 114 290 62 326"/>
    <path d="M 222 290 C 180 326 152 366 118 436"/>
  </g>
  <ellipse cx="256" cy="335" rx="66" ry="82" fill="url(#lg)"/>
  <ellipse cx="256" cy="228" rx="42" ry="46" fill="url(#lg)"/>
  <circle cx="243" cy="206" r="7" fill="#07060c"/>
  <circle cx="269" cy="206" r="7" fill="#07060c"/>
</svg>
