<svg xmlns="http://www.w3.org/2000/svg" viewBox="0 0 512 512">
  <defs>
    <linearGradient id="eg" x1="0" y1="0" x2="0" y2="1">
      <stop offset="0" stop-color="#a78bfa"/>
      <stop offset="1" stop-color="#6d28d9"/>
    </linearGradient>
    <filter id="eglow" x="-40%" y="-40%" width="180%" height="180%">
      <feGaussianBlur stdDeviation="9" result="b"/>
      <feMerge><feMergeNode in="b"/><feMergeNode in="SourceGraphic"/></feMerge>
    </filter>
  </defs>

  <!-- concentric rings -->
  <circle cx="256" cy="256" r="234" fill="none" stroke="#8b5cf6" stroke-opacity="0.16" stroke-width="3"/>
  <circle cx="256" cy="256" r="206" fill="none" stroke="#8b5cf6" stroke-opacity="0.28" stroke-width="2" stroke-dasharray="10 14"/>
  <circle cx="256" cy="256" r="178" fill="none" stroke="#8b5cf6" stroke-opacity="0.45" stroke-width="3"/>

  <g filter="url(#eglow)" transform="translate(256 262) scale(0.62) translate(-256 -256)">
    <g stroke="url(#eg)" stroke-width="24" stroke-linecap="round" fill="none">
      <path d="M 292 202 C 336 158 366 144 408 92"/>
      <path d="M 300 232 C 356 212 396 206 452 184"/>
      <path d="M 300 262 C 356 270 398 290 450 326"/>
      <path d="M 290 290 C 332 326 360 366 394 436"/>
      <path d="M 220 202 C 176 158 146 144 104 92"/>
      <path d="M 212 232 C 156 212 116 206 60 184"/>
      <path d="M 212 262 C 156 270 114 290 62 326"/>
      <path d="M 222 290 C 180 326 152 366 118 436"/>
    </g>
    <ellipse cx="256" cy="335" rx="66" ry="82" fill="url(#eg)"/>
    <ellipse cx="256" cy="228" rx="42" ry="46" fill="url(#eg)"/>
    <path d="M 256 275 C 272 300 272 350 256 395 C 240 350 240 300 256 275 z" fill="#07060c" fill-opacity="0.35"/>
  </g>
</svg>
